<svg xmlns="http://www.w3.org/2000/svg" viewBox="0 0 61.03 61.4"><defs><style>.cls-1{fill:#ebebeb;}</style></defs><g id="Layer_2" data-name="Layer 2"><g id="Layer_1-2" data-name="Layer 1"><g id="TakeawayCOM_Full_Colour" data-name="TakeawayCOM Full Colour"><g id="House"><path class="cls-1" d="M28.54.6a3.47,3.47,0,0,1,3.9,0A89.54,89.54,0,0,1,41,6.8s.7.5.8-.3A12.22,12.22,0,0,1,42,3.2a1.5,1.5,0,0,1,1.4-1s3.3.2,5.6.5a1.86,1.86,0,0,1,1.7,1.9s1.4,9.2,1.7,12.6c0,0,.3,1.7,2.7,4.6,0,0,5,6.9,5.6,8.3,0,0,1.2,2.4-1.3,2.7,0,0-4.6.4-5,.6a1.11,1.11,0,0,0-1,1.2h0s-.2,16-1.4,23.8c0,0-.3,3-2,3,0,0-4.7-.2-5.8-.1,0,0-.5,0-.4-.6,0,0,2.3-25.1.8-37.7,0,0-.1-1.6-1.3-1.9,0,0-1.1-.4-2.2,1a39.11,39.11,0,0,0-7.3,22.7s-.1,4,.5,5.1c0,0,.4.7,2.3.8L39,51s.4,0,.4.6c0,0-.6,7.3-.7,8.6a1.88,1.88,0,0,1-.2.8s-.1.2-.8.2c0,0-10.8-.1-12,0,0,0-.5,0-.6-.3s-1-9.7-.9-10.9a.55.55,0,0,1,.4-.6,6.26,6.26,0,0,0,3-4.8,29.46,29.46,0,0,0,.1-4.2s.4-14.1.5-16.4c0,0,.1-.8-.9-.9a.92.92,0,0,0-1.1.7h0V24s-.7,9.3-.6,13c0,0,.2,2.4-1.4,2.4,0,0-1.6.2-1.7-1.7,0,0,.1-9,.5-13.5a.94.94,0,0,0-.9-1.1A.9.9,0,0,0,21,24v.1s-.7,8.6-.6,13.2c0,0,.2,2.2-1.5,2.1,0,0-1.4.2-1.5-1.8,0,0,.4-12.4.5-13.3a1,1,0,0,0-.8-1.1h0A1,1,0,0,0,16,24h0v.1s-.7,14.7-.7,19.1c0,0-.1,4.5,3.2,6.3.3.1.4.4.5.7,0,0,.4,7.8.7,10.4,0,0,.1.6-.4.6l-8.3.2a1.67,1.67,0,0,1-1.7-1.6,152,152,0,0,1-1.7-25.1,1.2,1.2,0,0,0-1-1.3s-4.3-.4-5.3-.6a1.7,1.7,0,0,1-1.3-2v-.1H0a.52.52,0,0,1,.2-.4A83.94,83.94,0,0,1,28.54.6Z"/></g></g></g></g></svg>